<svg xmlns="http://www.w3.org/2000/svg" viewBox="0 0 64 64" fill="none">
  <!-- Blue Cuff -->
  <path d="M12 42h6v-10h-6z" fill="#3B5998" />
  <!-- Peach Hand -->
  <path d="M18 36c4 0 8-2 10-2s4 2 8 2h6c1.5 0 3 1 3 3v2c0 2-2 4-6 4H26l-8-3" fill="#FBC490" />
  <!-- Coin -->
  <circle cx="38" cy="22" r="9" fill="#FFB800" />
  <!-- Dollar Sign -->
  <path d="M38 17v10M35 20h5c1 0 2 .5 2 1.5s-1 1.5-2 1.5h-2c-1 0-2 .5-2 1.5s1 1.5 2 1.5h5" stroke="#ffffff" stroke-width="2.5" stroke-linecap="round" stroke-linejoin="round" />
</svg>
