<svg xmlns="http://www.w3.org/2000/svg" viewBox="0 0 64 64" fill="none">
  <!-- Left User Avatar -->
  <circle cx="19" cy="38" r="5" fill="#3B5998" />
  <path d="M11 50c0-3.5 3-6 8-6s8 2.5 8 6" fill="#3B5998" />
  <circle cx="19" cy="46.5" r="1.5" fill="#FF5E7E" />

  <!-- Right User Avatar -->
  <circle cx="45" cy="38" r="5" fill="#3B5998" />
  <path d="M37 50c0-3.5 3-6 8-6s8 2.5 8 6" fill="#3B5998" />
  <circle cx="45" cy="46.5" r="1.5" fill="#FF5E7E" />

  <!-- Top Curved Pink/Coral Arrows -->
  <!-- Clockwise Arch (Lower) -->
  <path d="M22 28c2-9 18-9 20 0" stroke="#FF5E7E" stroke-width="2.5" stroke-linecap="round" />
  <path d="M38 27.5l4 .5l-1-4" stroke="#FF5E7E" stroke-width="2" stroke-linecap="round" stroke-linejoin="round" />

  <!-- Counter-Clockwise Arch (Higher) -->
  <path d="M42 23c-2-9-18-9-20 0" stroke="#FF5E7E" stroke-width="2.5" stroke-linecap="round" />
  <path d="M26 23.5l-4-.5l1 4" stroke="#FF5E7E" stroke-width="2" stroke-linecap="round" stroke-linejoin="round" />

  <!-- Dotted Connection between them -->
  <path d="M27 44.5c2-1 6-1 10 0" stroke="#FF5E7E" stroke-width="1.5" stroke-linecap="round" stroke-dasharray="1 2" />
  <path d="M37 47c-2 1-6 1-10 0" stroke="#FF5E7E" stroke-width="1.5" stroke-linecap="round" stroke-dasharray="1 2" />
</svg>
